<svg xmlns="http://www.w3.org/2000/svg" viewBox="0 0 512 512" fill="#e6b800">
  <path d="M504 192H384l-8-32h96c8.8 0 16-7.2 16-16s-7.2-16-16-16h-96l-8-32c-2.2-8.8-11.2-14.2-20-12s-14.2 11.2-12 20l4 16H8c-4.4 0-8 3.6-8 8v64c0 4.4 3.6 8 8 8h332l4 16c1.8 7.4 8.5 12.4 15.9 12.4 1.3 0 2.7-.2 4.1-.5 8.8-2.2 14.2-11.2 12-20l-8-32h136c8.8 0 16-7.2 16-16s-7.2-16-16-16zm-160 0H16v-48h332l-4-16h.1l-4-16H64c-8.8 0-16 7.2-16 16s7.2 16 16 16h272l8 32-8 32z"/>
  <path d="M112 176h32c8.8 0 16-7.2 16-16s-7.2-16-16-16h-32c-8.8 0-16 7.2-16 16s7.2 16 16 16z"/>
  <circle cx="384" cy="160" r="16"/>
  <path d="M336 144h16c8.8 0 16-7.2 16-16s-7.2-16-16-16h-16c-8.8 0-16 7.2-16 16s7.2 16 16 16z"/>
</svg>