<svg xmlns="http://www.w3.org/2000/svg" viewBox="0 0 512 512" fill="#e6b800">
  <path d="M256 80c-97.2 0-176 78.8-176 176v32c0 35.3 28.7 64 64 64h224c35.3 0 64-28.7 64-64v-32c0-97.2-78.8-176-176-176zm144 208c0 17.6-14.4 32-32 32H144c-17.6 0-32-14.4-32-32v-32c0-79.5 64.5-144 144-144s144 64.5 144 144v32z"/>
  <path d="M368 352H144c-8.8 0-16 7.2-16 16v32c0 8.8 7.2 16 16 16h224c8.8 0 16-7.2 16-16v-32c0-8.8-7.2-16-16-16zm-16 32H160v-16h192v16z"/>
  <path d="M208 288h96c8.8 0 16-7.2 16-16v-32c0-8.8-7.2-16-16-16h-96c-8.8 0-16 7.2-16 16v32c0 8.8 7.2 16 16 16zm16-32h64v16h-64v-16z"/>
  <circle cx="176" cy="240" r="16"/>
  <circle cx="336" cy="240" r="16"/>
</svg>