<svg xmlns="http://www.w3.org/2000/svg" viewBox="0 0 512 512" fill="#4a6baf">
  <path d="M384 64H128c-17.7 0-32 14.3-32 32v320c0 17.7 14.3 32 32 32h256c17.7 0 32-14.3 32-32V96c0-17.7-14.3-32-32-32zm0 352H128V96h256v320z"/>
  <path d="M336 128H176c-8.8 0-16 7.2-16 16v64c0 8.8 7.2 16 16 16h160c8.8 0 16-7.2 16-16v-64c0-8.8-7.2-16-16-16zm-16 64H192v-32h128v32z"/>
  <path d="M336 256H176c-8.8 0-16 7.2-16 16v64c0 8.8 7.2 16 16 16h160c8.8 0 16-7.2 16-16v-64c0-8.8-7.2-16-16-16zm-16 64H192v-32h128v32z"/>
  <path d="M144 64c-8.8 0-16 7.2-16 16v32c0 8.8 7.2 16 16 16s16-7.2 16-16V80c0-8.8-7.2-16-16-16z"/>
  <path d="M368 64c-8.8 0-16 7.2-16 16v32c0 8.8 7.2 16 16 16s16-7.2 16-16V80c0-8.8-7.2-16-16-16z"/>
</svg>