<svg xmlns="http://www.w3.org/2000/svg" viewBox="0 0 512 512" fill="#e6b800">
  <path d="M501.7 78.2c-5.3-11.4-16.8-18.7-29.3-18.7h-91.4c-12.5 0-24 7.3-29.3 18.7l-5.9 12.7h-96.1l-5.9-12.7c-5.3-11.4-16.8-18.7-29.3-18.7H123c-12.5 0-24 7.3-29.3 18.7l-5.9 12.7H10.3C4.6 90.9 0 95.5 0 101.2s4.6 10.3 10.3 10.3h77.5l-5.9 12.7c-5.3 11.4-16.8 18.7-29.3 18.7H10.3C4.6 142.9 0 147.5 0 153.2s4.6 10.3 10.3 10.3h42.3c12.5 0 24-7.3 29.3-18.7l5.9-12.7h96.1l5.9 12.7c5.3 11.4 16.8 18.7 29.3 18.7h91.4c12.5 0 24-7.3 29.3-18.7l5.9-12.7h77.5c5.7 0 10.3-4.6 10.3-10.3s-4.6-10.3-10.3-10.3h-77.5l5.9-12.7c5.3-11.4 16.8-18.7 29.3-18.7h91.4c12.5 0 24 7.3 29.3 18.7l5.9 12.7h77.5c5.7 0 10.3-4.6 10.3-10.3s-4.6-10.3-10.3-10.3h-77.5l5.9-12.7z"/>
  <path d="M472.4 183.5H39.6c-5.7 0-10.3 4.6-10.3 10.3v124.4c0 5.7 4.6 10.3 10.3 10.3h432.8c5.7 0 10.3-4.6 10.3-10.3V193.8c0-5.7-4.6-10.3-10.3-10.3zm-10.3 124.4H49.9V204.1h412.2v103.8z"/>
  <path d="M452.1 224.4H59.9c-5.7 0-10.3 4.6-10.3 10.3v62.2c0 5.7 4.6 10.3 10.3 10.3h392.2c5.7 0 10.3-4.6 10.3-10.3v-62.2c0-5.7-4.6-10.3-10.3-10.3zm-10.3 62.2H70.2v-41.6h371.6v41.6z"/>
</svg>